<svg id="Layer_1" data-name="Layer 1" xmlns="http://www.w3.org/2000/svg" viewBox="0 0 1500 317.9"><defs><style>.cls-1{fill:#523788;}</style></defs><path class="cls-1" d="M86.15,317.9C40.1,317.9,0,291.17,0,251.07c0-48.52,37.63-74.76,105-74.76h30.2v-10.4c0-33.17-16.34-46.54-53-46.54-33.67,0-58.43,12.88-71.3,30.7H8.42V131.75c0-20.79,27.23-47.53,77.73-47.53,56.93,0,87.63,29.71,87.63,84.66v70.3C173.78,284.73,149,317.9,86.15,317.9Zm49.51-109.41H105c-45,0-65.85,13.86-65.85,38.62,0,19.8,19.81,35.15,48.52,35.15,34.16,0,48-13.37,48-46Z"/><path class="cls-1" d="M289.79,317.66c-37.62,0-67.83-17.82-67.83-45.05V256.27h2c12.38,13.86,37.63,25.25,66.84,25.25,33.17,0,48-10.4,48-32.68,0-18.32-7.92-26.74-59.41-37.63-42.08-8.91-61.88-22.77-61.88-56.44,0-36.64,33.17-70.8,89.11-70.8,33.18,0,65.85,14.86,65.85,42.58v16.83h-2c-9.9-11.88-34.16-23.27-60.9-23.27-38.12,0-53.47,12.88-53.47,31.69,0,16.34,8.42,21.79,55.45,31.69,44.56,9.9,66.35,31.19,66.35,61.39C377.92,292.41,341.28,317.66,289.79,317.66Z"/><path class="cls-1" d="M522.86,317.66c-59.9,0-104.46-46.05-104.46-112.88C418.4,130,459,84.47,522.86,84.47c59.41,0,101,45.05,101,111.89C623.86,272.11,583.76,317.66,522.86,317.66Zm-5.94-197c-36.14,0-59.9,29.21-59.9,76.25,0,51.49,25.24,84.16,69.31,84.16,38.12,0,58.42-31.68,58.42-75.75C584.75,149.33,561.48,120.61,516.92,120.61Z"/><path class="cls-1" d="M839,313.2c-15.35,0-23.76-7.92-23.76-24.75V185c0-47-17.33-64.87-57.43-64.87-33.67,0-53,18.82-53,64.87V313.2H690.52c-13.87,0-23.77-8.41-23.77-26.24V184c0-62.88,38.12-100,95.55-100,56.44,0,90.61,32.19,90.61,99.52V313.2Z"/><path class="cls-1" d="M1001.53,317.66c-55.95,0-103-51-103-113.87C898.55,126.55,934.69,84,997.07,84c27.23,0,52,12.38,67.34,43.08V-.69h10.39c18.81,0,28.72,9.9,28.72,31.19V193.89C1103.52,280.53,1071.83,317.66,1001.53,317.66Zm-3.47-198c-39.11,0-60.89,29.71-60.89,80.7,0,45.05,27.72,81.2,67.82,81.2,40.6,0,59.42-21.79,59.42-76.74C1064.41,163.68,1052,119.62,998.06,119.62Z"/><path class="cls-1" d="M1243.72,218.15h-55.45c3.47,37.62,29.71,63.86,71.79,63.86,34.66,0,55.45-10.89,68.33-23.27h2v16.84c0,23.76-25.24,42.08-75.75,42.08-61.88,0-105.45-48-105.45-112.39,0-72.78,45.55-121.3,105-121.3,44.06,0,85.16,33.18,85.16,78.23C1339.28,201.81,1321,218.15,1243.72,218.15Zm6.44-100c-37.63,0-60.4,31.2-61.89,60.41l-.49,9.4,51-1c54-1,63.37-5.94,63.37-22.77C1302.14,139.92,1285.31,118.13,1250.16,118.13Z"/><path class="cls-1" d="M1498,135.46c-6.94-5.94-19.31-11.38-34.66-11.38-29.71,0-41.09,14.85-41.09,62.87V313.2h-16.34c-13.86,0-21.78-10.89-21.78-25.74V184c0-62.38,30.2-95.55,73.76-95.55,30.7,0,42.09,13.37,42.09,28.72v18.31Z"/></svg>